<?xml version="1.0" encoding="utf-8"?>
<!-- Generator: Adobe Illustrator 19.0.0, SVG Export Plug-In . SVG Version: 6.00 Build 0)  -->
<svg version="1.1" id="Layer_1" xmlns="http://www.w3.org/2000/svg" xmlns:xlink="http://www.w3.org/1999/xlink" x="0px" y="0px"
	 viewBox="1250 -65.4 32 33.9" style="enable-background:new 1250 -65.4 32 33.9;" xml:space="preserve">
<style type="text/css">
	.st0{fill:#61DAFB;}
</style>
<g>
	<path class="st0" d="M1279-53.8c0-1.7-2.2-3.4-5.5-4.4c0.8-3.4,0.4-6-1.1-6.9c-0.3-0.2-0.7-0.3-1.2-0.3v1.2c0.2,0,0.4,0,0.6,0.1
		c0.7,0.4,1,2,0.8,4c-0.1,0.5-0.2,1-0.3,1.6c-1-0.3-2.2-0.4-3.4-0.6c-0.7-1-1.5-1.9-2.2-2.6c1.7-1.6,3.3-2.5,4.4-2.5v-1.2
		c-1.5,0-3.4,1-5.3,2.8c-1.9-1.8-3.8-2.8-5.3-2.8v1.2c1.1,0,2.7,0.9,4.4,2.5c-0.7,0.8-1.5,1.7-2.2,2.6c-1.2,0.1-2.3,0.3-3.4,0.6
		c-0.1-0.5-0.2-1-0.3-1.5c-0.2-2,0.1-3.6,0.8-4c0.2-0.1,0.4-0.1,0.6-0.1v-1.2c-0.4,0-0.8,0.1-1.2,0.3c-1.5,0.9-1.8,3.5-1.1,6.9
		c-3.3,1-5.4,2.6-5.4,4.4c0,1.7,2.2,3.4,5.5,4.4c-0.8,3.4-0.4,6,1.1,6.9c0.3,0.2,0.7,0.3,1.2,0.3c1.5,0,3.4-1,5.3-2.8
		c1.9,1.8,3.8,2.8,5.3,2.8c0.4,0,0.8-0.1,1.2-0.3c1.5-0.9,1.8-3.5,1.1-6.9C1276.8-50.5,1279-52.1,1279-53.8L1279-53.8z M1272.1-57.3
		c-0.2,0.7-0.4,1.4-0.7,2.1c-0.2-0.4-0.4-0.8-0.7-1.3c-0.2-0.4-0.5-0.8-0.8-1.2C1270.7-57.6,1271.4-57.5,1272.1-57.3L1272.1-57.3z
		 M1269.7-51.7c-0.4,0.7-0.8,1.4-1.3,2c-0.8,0.1-1.6,0.1-2.4,0.1c-0.8,0-1.6,0-2.4-0.1c-0.4-0.6-0.9-1.3-1.3-2
		c-0.4-0.7-0.8-1.4-1.1-2.1c0.3-0.7,0.7-1.4,1.1-2.1c0.4-0.7,0.8-1.4,1.3-2c0.8-0.1,1.6-0.1,2.4-0.1c0.8,0,1.6,0,2.4,0.1
		c0.4,0.6,0.9,1.3,1.3,2c0.4,0.7,0.8,1.4,1.1,2.1C1270.4-53.1,1270.1-52.4,1269.7-51.7z M1271.4-52.4c0.3,0.7,0.5,1.4,0.7,2.1
		c-0.7,0.2-1.4,0.3-2.2,0.4c0.3-0.4,0.5-0.8,0.8-1.3C1270.9-51.5,1271.2-52,1271.4-52.4L1271.4-52.4z M1266-46.7
		c-0.5-0.5-1-1.1-1.5-1.7c0.5,0,1,0,1.5,0c0.5,0,1,0,1.5,0C1267-47.8,1266.5-47.3,1266-46.7z M1262.1-49.9c-0.8-0.1-1.5-0.2-2.2-0.4
		c0.2-0.7,0.4-1.4,0.7-2.1c0.2,0.4,0.4,0.8,0.7,1.3C1261.6-50.7,1261.8-50.3,1262.1-49.9z M1266-60.9c0.5,0.5,1,1.1,1.5,1.7
		c-0.5,0-1,0-1.5,0c-0.5,0-1,0-1.5,0C1265-59.8,1265.5-60.3,1266-60.9z M1262.1-57.8c-0.3,0.4-0.5,0.8-0.8,1.3
		c-0.2,0.4-0.5,0.8-0.7,1.3c-0.3-0.7-0.5-1.4-0.7-2.1C1260.6-57.5,1261.3-57.6,1262.1-57.8z M1257.3-51.1c-1.9-0.8-3.1-1.8-3.1-2.7
		c0-0.8,1.2-1.9,3.1-2.7c0.5-0.2,1-0.4,1.5-0.5c0.3,1,0.7,2.1,1.2,3.2c-0.5,1.1-0.9,2.2-1.2,3.2
		C1258.2-50.8,1257.7-50.9,1257.3-51.1L1257.3-51.1z M1260.1-43.6c-0.7-0.4-1-2-0.8-4c0.1-0.5,0.2-1,0.3-1.6c1,0.3,2.2,0.5,3.4,0.6
		c0.7,1,1.5,1.9,2.2,2.6c-1.7,1.6-3.3,2.5-4.4,2.5C1260.5-43.4,1260.3-43.5,1260.1-43.6z M1272.7-47.6c0.2,2-0.1,3.6-0.8,4
		c-0.2,0.1-0.4,0.1-0.6,0.1c-1.1,0-2.7-0.9-4.4-2.5c0.7-0.8,1.5-1.7,2.2-2.6c1.2-0.1,2.3-0.3,3.4-0.6
		C1272.5-48.6,1272.6-48.1,1272.7-47.6L1272.7-47.6z M1274.7-51.1c-0.5,0.2-1,0.4-1.5,0.5c-0.3-1-0.7-2.1-1.2-3.2
		c0.5-1.1,0.9-2.2,1.2-3.2c0.5,0.2,1,0.3,1.5,0.5c1.9,0.8,3.1,1.8,3.1,2.7C1277.8-53,1276.6-51.9,1274.7-51.1L1274.7-51.1z"/>
	<circle class="st0" cx="1266" cy="-53.8" r="2.4"/>
	<path class="st0" d="M1257.8-35.6c0.3-0.4,0.4-0.8,0.4-1.2c0-0.7-0.2-1.3-0.7-1.7c-0.5-0.4-1.1-0.6-2-0.6h-2.5v7.6h1v-3.1h1.8
		l1.6,3.1h1.1v-0.1l-1.8-3.2C1257.2-35,1257.6-35.3,1257.8-35.6z M1255.6-35.5h-1.5v-2.9h1.5c0.5,0,0.9,0.1,1.2,0.4
		c0.3,0.3,0.4,0.6,0.4,1.1c0,0.4-0.1,0.8-0.4,1C1256.5-35.6,1256.1-35.5,1255.6-35.5z"/>
	<path class="st0" d="M1278-32.5c-0.1-0.1-0.1-0.3-0.1-0.5v-3.5h1.1v-0.7h-1.1v-1.4h-1v1.4h-1v0.7h1v3.5c0,0.5,0.1,0.9,0.3,1.1
		c0.2,0.3,0.5,0.4,1,0.4c0.2,0,0.5,0,0.7-0.1v-0.8c-0.2,0-0.3,0.1-0.5,0.1C1278.3-32.3,1278.1-32.3,1278-32.5z"/>
	<path class="st0" d="M1274.1-32.6c-0.3,0.2-0.6,0.3-0.9,0.3v0c-0.5,0-0.9-0.2-1.1-0.5c-0.3-0.4-0.4-0.9-0.4-1.5v-0.2
		c0-0.7,0.1-1.2,0.4-1.5c0.3-0.4,0.7-0.5,1.1-0.5c0.4,0,0.7,0.1,0.9,0.4c0.3,0.2,0.4,0.5,0.4,0.9h0.9c0-0.6-0.3-1.1-0.7-1.5
		c-0.4-0.4-0.9-0.6-1.6-0.6c-0.5,0-1,0.1-1.3,0.4c-0.4,0.2-0.7,0.6-0.9,1c-0.2,0.4-0.3,0.9-0.3,1.5v0.2c0,0.9,0.2,1.6,0.7,2.1
		c0.5,0.5,1.1,0.8,1.8,0.8c0.4,0,0.7-0.1,1.1-0.3c0.3-0.2,0.6-0.4,0.8-0.7c0.2-0.3,0.3-0.6,0.3-0.9h-0.9
		C1274.5-33,1274.4-32.8,1274.1-32.6z"/>
	<path class="st0" d="M1261.7-37.3c-0.4,0-0.9,0.1-1.3,0.4c-0.4,0.2-0.7,0.6-0.9,1c-0.2,0.4-0.3,0.9-0.3,1.5v0.2
		c0,0.8,0.2,1.5,0.7,2c0.5,0.5,1.1,0.8,1.9,0.8v0c0.9,0,1.7-0.4,2.1-1.1l-0.6-0.5c-0.2,0.2-0.4,0.4-0.6,0.6
		c-0.2,0.1-0.5,0.2-0.9,0.2c-0.5,0-0.9-0.2-1.2-0.5c-0.3-0.3-0.5-0.8-0.5-1.4h3.8v-0.4c0-0.9-0.2-1.6-0.6-2.1
		C1263-37.1,1262.4-37.3,1261.7-37.3z M1263.1-34.9h-2.8c0.1-0.5,0.2-0.9,0.5-1.2c0.3-0.3,0.6-0.4,1-0.4l0,0c0.4,0,0.7,0.1,1,0.4
		C1262.9-35.8,1263.1-35.4,1263.1-34.9L1263.1-34.9z"/>
	<path class="st0" d="M1269.4-35.5c0-0.6-0.2-1-0.6-1.3c-0.4-0.3-0.9-0.5-1.5-0.5c-0.4,0-0.8,0.1-1.1,0.2c-0.3,0.2-0.6,0.4-0.8,0.6
		c-0.2,0.3-0.3,0.5-0.3,0.8h1c0-0.2,0.1-0.5,0.3-0.6c0.2-0.2,0.5-0.3,0.9-0.3c0.4,0,0.7,0.1,0.9,0.3c0.2,0.2,0.3,0.5,0.3,0.8v0.4
		h-0.9c-0.8,0-1.4,0.2-1.9,0.5c-0.4,0.3-0.7,0.8-0.7,1.4c0,0.5,0.2,0.9,0.5,1.2c0.4,0.3,0.8,0.5,1.4,0.5c0.6,0,1.2-0.2,1.6-0.7
		c0,0.3,0.1,0.5,0.1,0.6l1,0v-0.1c-0.1-0.3-0.2-0.7-0.2-1.2V-35.5z M1268.5-33.2c-0.1,0.3-0.3,0.5-0.6,0.6c-0.3,0.2-0.6,0.2-0.9,0.2
		c-0.3,0-0.6-0.1-0.8-0.3c-0.2-0.2-0.3-0.4-0.3-0.7c0-0.7,0.6-1,1.8-1h0.8V-33.2z"/>
</g>
</svg>
